<?xml version="1.0" encoding="utf-8"?>
<!-- Generator: Adobe Illustrator 19.1.0, SVG Export Plug-In . SVG Version: 6.00 Build 0)  -->
<svg version="1.1" id="Layer_1" xmlns="http://www.w3.org/2000/svg" xmlns:xlink="http://www.w3.org/1999/xlink" x="0px" y="0px"
	 viewBox="0 0 29.5 119.8" style="enable-background:new 0 0 29.5 119.8;" xml:space="preserve">
<style type="text/css">
	.st0{fill:none;stroke:#EC008C;stroke-width:2.8913;stroke-miterlimit:10;}
</style>
<path class="st0" d="M14.2,106.9c0,0.2,0.3,1.7,1.7,2.4c1.6,0.8,3.7-1.4,3.6-2.8c-0.1-1.8-0.7-2.6-2.6-3.4c-0.4-0.2-1.9-0.8-3.6-0.2
	c-2.4,0.9-3.6,3.8-3.4,6.2c0.3,3.1,3.1,5.7,5.8,5.8c7.7,0.1,9.1-6,9.1-6s1.6-2.6-7-15.1c-1.3-1.8-2.5-6-2.4-10.2
	c0-1.7-0.9-12,1.2-13c1.3-0.6,3.5-1.1,4.6,0.2c1.3,1.5,0.7,4.4-1,5c-1.3,0.5-2.7-0.6-2.9-0.7"/>
<path class="st0" d="M8.6,60.6c4.1-0.9,5,2.4,1.6,4.1c-2.8,1.4-5.7-0.6-7.1-3c-3-5-1.7-12.3,0.4-17.3c2.2-5.2,5.6-12,7.7-17.3
	c2.9-7.4-3.1-6.8-5.2-13.3C5.3,11.4,4.6,5.7,6.9,3.7c2.8-2.5,3.7,3.9,7,4.6c4.1,0.9,6.7-1.6,8.2-4.8c1.7-3.7,3.9-1.9,5.3,1.8
	c1.2,3.1,0.7,6.9-1,9.7c-0.9,1.5-2,2.5-3,3.9c-1.5,2-1.1,3.7-0.9,6c0.2,3.4-0.4,7.5-0.3,10.9c0.1,3.1,1,4.3,2.3,6.9
	c3.2,6.3,5.5,15.7-2.3,20c-3,1.6-9,3.3-8.1,7.9c0.3,1.6,1.7,3.4,3.4,2.7c3.7-1.5,0.8-5.5,0.9-6.9"/>
</svg>
