<?xml version="1.0" encoding="utf-8"?>
<!-- Generator: Adobe Illustrator 19.1.0, SVG Export Plug-In . SVG Version: 6.00 Build 0)  -->
<svg version="1.1" id="Layer_1" xmlns="http://www.w3.org/2000/svg" xmlns:xlink="http://www.w3.org/1999/xlink" x="0px" y="0px"
	 viewBox="0 0 133.2 122.7" style="enable-background:new 0 0 133.2 122.7;" xml:space="preserve">
<style type="text/css">
	.st0{fill:none;stroke:#ADB3BE;stroke-width:4.614;stroke-miterlimit:10;}
</style>
<path id="_x2F_primitives_x2F_elegant_x5F_elle-23.svg_1_4_" class="st0" d="M23.6,113c22.3,7,41.9-7.2,41.9-7.2s26.7-7.1,24.9-38.7
	C89.2,58,80.1,39.3,68.2,38.6c-15.3,0.6-25.5,20.7-26.8,29.5c-3.3,33.8,40.9,52.8,67.3,44.5"/>
<path id="_x2F_primitives_x2F_elegant_x5F_elle-23.svg_1_5_" class="st0" d="M10.7,115.6c29.2,9.2,55-9.4,55-9.4s35-9.3,32.7-50.7
	c-1.6-12-13.6-36.4-29.2-37.3C49,19,35.8,45.3,34,56.8c-4.4,44.3,53.5,69.2,88.2,58.3"/>
<path id="_x2F_primitives_x2F_elegant_x5F_elle-23.svg_1_7_" class="st0" d="M32.2,112.6C49.6,118,65,107,65,107s20.9-5.5,19.5-30.2
	c-1-7.1-8.1-21.7-17.4-22.2c-12,0.5-19.9,16.2-20.9,23c-2.6,26.4,31.9,41.3,52.6,34.8"/>
<path id="_x2F_primitives_x2F_elegant_x5F_elle-23.svg_1_6_" class="st0" d="M0.7,117.4c34.6,10.8,65-11.1,65-11.1
	s41.4-11,38.6-59.9C102.4,32.2,88.2,3.3,69.8,2.3C46,3.2,30.3,34.4,28.3,47.9c-5.2,52.3,63.3,81.8,104.2,68.9"/>
</svg>
