<?xml version="1.0" encoding="utf-8"?>
<!-- Generator: Adobe Illustrator 19.1.0, SVG Export Plug-In . SVG Version: 6.00 Build 0)  -->
<svg version="1.1" id="Layer_1" xmlns="http://www.w3.org/2000/svg" xmlns:xlink="http://www.w3.org/1999/xlink" x="0px" y="0px"
	 viewBox="0 0 182 120.3" style="enable-background:new 0 0 182 120.3;" xml:space="preserve">
<style type="text/css">
	.st0{fill:none;stroke:#EA118D;stroke-width:5.6693;stroke-miterlimit:10;}
</style>
<path class="st0" d="M55.8,17c-5.6,7.7-2.8,20.3,7,22.9c11.4,3,25-8.8,18.7-20.3c-10.7-19.4-40.2-9.1-51.9,3
	c-16.8,17.3-14.8,44.9,2.6,60.9c18.3,16.8,42.3,21.3,66.1,23.1c14.3,1,28.5,1.9,42.8,1.2c6.3-0.3,12.5-0.8,18.7-1.4
	c4.2-0.4,10.6-1.4,14.9-2.3"/>
<path class="st0" d="M97.7,39.7c-4.1,5-2.8,13.7,3.8,15.9c7.6,2.6,17.4-4.9,13.6-13c-6.4-13.6-26.9-7.9-35.4-0.2
	c-12.2,11-12,29.9-0.9,41.5c11.7,12.2,27.8,16.3,43.9,18.5c9.7,1.3,19.3,2.5,29,2.7c4.3,0.1,8.5,0,12.8-0.1
	c2.9-0.1,7.2-0.5,10.2-0.9"/>
<path class="st0" d="M125.5,66.9c-2.4,2.9-1.6,8,2.2,9.2c4.4,1.5,10.1-2.9,7.9-7.6c-3.8-8-15.7-4.6-20.7-0.1
	c-7.1,6.4-7,17.4-0.5,24.2c6.8,7.1,16.2,9.5,25.6,10.8c5.6,0.8,11.3,1.5,16.9,1.6c2.5,0,5,0,7.5-0.1c1.7,0,4.2-0.3,5.9-0.5"/>
<path class="st0" d="M149.2,83.1c-1.4,1.7-0.9,4.6,1.3,5.3c2.6,0.9,5.8-1.7,4.6-4.4c-2.2-4.6-9-2.7-11.9-0.1c-4.1,3.7-4,10.1-0.3,14
	c3.9,4.1,9.4,5.5,14.8,6.2c3.2,0.4,6.5,0.8,9.8,0.9c1.4,0,2.9,0,4.3,0c1,0,2.4-0.2,3.4-0.3"/>
</svg>
