<?xml version="1.0" encoding="utf-8"?>
<!-- Generator: Adobe Illustrator 19.1.0, SVG Export Plug-In . SVG Version: 6.00 Build 0)  -->
<svg version="1.1" id="Layer_1" xmlns="http://www.w3.org/2000/svg" xmlns:xlink="http://www.w3.org/1999/xlink" x="0px" y="0px"
	 viewBox="0 0 193.3 90.5" style="enable-background:new 0 0 193.3 90.5;" xml:space="preserve">
<style type="text/css">
	.st0{fill:none;stroke:#EA118D;stroke-width:5.6693;stroke-miterlimit:10;}
</style>
<path class="st0" d="M49.9,12.6l40.8,42.6c2.1,2.2,5.6,2.2,7.7,0l40.8-41.6"/>
<path class="st0" d="M32.3,25.7l57,42.6c2.9,2.2,7.8,2.2,10.8,0l56.9-41.6"/>
<path class="st0" d="M2.3,36l84.3,42.6c4.3,2.2,11.6,2.2,15.9,0l84.2-41.6"/>
<path class="st0" d="M67.4,12.2l24.8,25.9c1.3,1.3,3.4,1.3,4.7,0l24.8-25.3"/>
<path class="st0" d="M78.3,7l14.9,15.5c0.8,0.8,2,0.8,2.8,0l14.8-15.1"/>
</svg>
