<?xml version="1.0" encoding="utf-8"?>
<!-- Generator: Adobe Illustrator 19.1.0, SVG Export Plug-In . SVG Version: 6.00 Build 0)  -->
<svg version="1.1" xmlns="http://www.w3.org/2000/svg" xmlns:xlink="http://www.w3.org/1999/xlink" x="0px" y="0px"
	 viewBox="4 -23 467 186.7" style="enable-background:new 4 -23 467 186.7;" xml:space="preserve">
<style type="text/css">
	.st0{fill:none;stroke:#C0C0C0;stroke-width:5.6693;stroke-miterlimit:10;}
	.st1{fill:#1E1E1E;}
	.st2{fill:none;stroke:#1E1E1E;stroke-miterlimit:10;}
	.st3{font-family:'FuturaPT-Book';}
	.st4{font-size:9px;}
	.st5{fill:none;stroke:#1ED83D;stroke-width:6.5197;stroke-miterlimit:10;}
</style>
<g id="Layer_2">
	<g id="Layer_1_2_">
		<path id="_x2F_primitives_x2F_open_x5F_scroll.svg" class="st0" d="M56.6,136.1c-0.4,0.4-4.8,5-3.5,11.2c0.1,0.4,1.6,7.6,8,9.1
			c3.7,0.9,7.7-0.4,10.1-3c4.6-5.3,0.7-14.1,0.3-15.2c-3.3-7.5-41.6-28.5-52.2-41.9c-5.5-6.9-7.2-12.1-5.2-21.7
			c1.5-7.3,18-27.5,26.4-26.9c6,0.5,10.1,3.4,11.5,4.5c5.9,4.4,11,12.6,9.6,20.9c-0.3,1.7-1,6.5-5.2,9.7c-0.5,0.4-5.7,4.1-11.6,2
			c-4.3-1.6-8.5-6.1-7.9-11.4c0.5-3.8,3.3-6.7,6.4-8c4.6-1.9,8.8,0.2,9.4,0.5"/>
	</g>
	<g id="Layer_1_3_">
		<path id="_x2F_primitives_x2F_open_x5F_scroll.svg_1_" class="st0" d="M102.1,4.7c0.4-0.4,4.8-5,3.5-11.2c-0.1-0.4-1.6-7.6-8-9.1
			c-3.7-0.9-7.7,0.4-10.1,3c-4.6,5.3-0.7,14.1-0.3,15.2c3.3,7.5,41.6,28.5,52.2,41.9c5.5,6.9,7.2,12.1,5.2,21.7
			c-1.5,7.3-18,27.5-26.4,26.9c-6-0.5-10.1-3.4-11.5-4.5c-5.9-4.4-11-12.6-9.6-20.9c0.3-1.7,1-6.5,5.2-9.7c0.5-0.4,5.7-4.1,11.6-2
			c4.3,1.6,8.5,6.1,7.9,11.4c-0.5,3.8-3.3,6.7-6.4,8c-4.6,1.9-8.8-0.2-9.4-0.5"/>
	</g>
	<g id="Layer_1_1_">
		<path id="_x2F_primitives_x2F_elegant_x5F_scroll.svg" class="st0" d="M91.2,43.2c-3.3-3.6-8.5-4.5-12.5-2.5
			c-5.2,2.6-6.9,9.5-4.5,14c2.7,5.1,9.7,5.4,13.5,4.5c8.5-2,12.6-12.1,13.5-18.5c0.2-1.3,1.9-14.3-8-22.5
			C82.1,9,67.6,15.3,66.7,15.7C59.1,19.2,51,27.1,51.2,36.2c0,2,0.5,6.2,9.5,16.5c10.6,12.2,16.6,13.8,29,26
			c9.1,8.9,13.6,13.5,15,21c0.3,1.6,2.3,13.5-6,22c-6.9,7.1-16.2,7-19,7c-3.2,0-11.4-0.6-18.5-7c-1.3-1.2-10.1-9.1-9-20
			c1.4-12.8,15.9-23.5,26-20.5c4.9,1.5,9.9,6.6,10,12.5c0.1,4.2-2.4,9.5-6.5,10.5c-5.2,1.2-10-5.1-11-6.5c-1.3-1.7-2.1-3.3-2.5-4.5"
			/>
	</g>
	<g id="Layer_1_10_">
		<path id="_x2F_primitives_x2F_open_x5F_scroll.svg_7_" class="st0" d="M216.1,136.1c-0.4,0.4-4.8,5-3.5,11.2
			c0.1,0.4,1.6,7.6,8,9.1c3.7,0.9,7.7-0.4,10.1-3c4.6-5.3,0.7-14.1,0.3-15.2c-3.3-7.5-41.6-28.5-52.2-41.9
			c-5.5-6.9-7.2-12.1-5.2-21.7c1.5-7.3,18-27.5,26.4-26.9c6,0.5,10.1,3.4,11.5,4.5c5.9,4.4,11,12.6,9.6,20.9c-0.3,1.7-1,6.5-5.2,9.7
			c-0.5,0.4-5.7,4.1-11.6,2c-4.3-1.6-8.5-6.1-7.9-11.4c0.5-3.8,3.3-6.7,6.4-8c4.6-1.9,8.8,0.2,9.4,0.5"/>
	</g>
	<g id="Layer_1_9_">
		<path id="_x2F_primitives_x2F_open_x5F_scroll.svg_6_" class="st0" d="M261.6,4.7c0.4-0.4,4.8-5,3.5-11.2c-0.1-0.4-1.6-7.6-8-9.1
			c-3.7-0.9-7.7,0.4-10.1,3c-4.6,5.3-0.7,14.1-0.3,15.2c3.3,7.5,41.6,28.5,52.2,41.9c5.5,6.9,7.2,12.1,5.2,21.7
			c-1.5,7.3-18,27.5-26.4,26.9c-6-0.5-10.1-3.4-11.5-4.5c-5.9-4.4-11-12.6-9.6-20.9c0.3-1.7,1-6.5,5.2-9.7c0.5-0.4,5.7-4.1,11.6-2
			c4.3,1.6,8.5,6.1,7.9,11.4c-0.5,3.8-3.3,6.7-6.4,8c-4.6,1.9-8.8-0.2-9.4-0.5"/>
	</g>
	<g id="Layer_1_8_">
		<path id="_x2F_primitives_x2F_elegant_x5F_scroll.svg_4_" class="st0" d="M250.7,43.2c-3.3-3.6-8.5-4.5-12.5-2.5
			c-5.2,2.6-6.9,9.5-4.5,14c2.7,5.1,9.7,5.4,13.5,4.5c8.5-2,12.6-12.1,13.5-18.5c0.2-1.3,1.9-14.3-8-22.5
			c-11.1-9.2-25.6-2.9-26.5-2.5c-7.6,3.5-15.7,11.4-15.5,20.5c0,2,0.5,6.2,9.5,16.5c10.6,12.2,16.6,13.8,29,26
			c9.1,8.9,13.6,13.5,15,21c0.3,1.6,2.3,13.5-6,22c-6.9,7.1-16.2,7-19,7c-3.2,0-11.4-0.6-18.5-7c-1.3-1.2-10.1-9.1-9-20
			c1.4-12.8,15.9-23.5,26-20.5c4.9,1.5,9.9,6.6,10,12.5c0.1,4.2-2.4,9.5-6.5,10.5c-5.2,1.2-10-5.1-11-6.5c-1.3-1.7-2.1-3.3-2.5-4.5"
			/>
	</g>
	<g id="Layer_1_15_">
		<path id="_x2F_primitives_x2F_open_x5F_scroll.svg_11_" class="st0" d="M370.7,136.1c-0.4,0.4-4.8,5-3.5,11.2
			c0.1,0.4,1.6,7.6,8,9.1c3.7,0.9,7.7-0.4,10.1-3c4.6-5.3,0.7-14.1,0.3-15.2c-3.3-7.5-41.6-28.5-52.2-41.9
			c-5.5-6.9-7.2-12.1-5.2-21.7c1.5-7.3,18-27.5,26.4-26.9c6,0.5,10.1,3.4,11.5,4.5c5.9,4.4,11,12.6,9.6,20.9c-0.3,1.7-1,6.5-5.2,9.7
			c-0.5,0.4-5.7,4.1-11.6,2c-4.3-1.6-8.5-6.1-7.9-11.4c0.5-3.8,3.3-6.7,6.4-8c4.6-1.9,8.8,0.2,9.4,0.5"/>
	</g>
	<g id="Layer_1_14_">
		<path id="_x2F_primitives_x2F_open_x5F_scroll.svg_10_" class="st0" d="M416.2,4.7c0.4-0.4,4.8-5,3.5-11.2c-0.1-0.4-1.6-7.6-8-9.1
			c-3.7-0.9-7.7,0.4-10.1,3c-4.6,5.3-0.7,14.1-0.3,15.2c3.3,7.5,41.6,28.5,52.2,41.9c5.5,6.9,7.2,12.1,5.2,21.7
			c-1.5,7.3-18,27.5-26.4,26.9c-6-0.5-10.1-3.4-11.5-4.5c-5.9-4.4-11-12.6-9.6-20.9c0.3-1.7,1-6.5,5.2-9.7c0.5-0.4,5.7-4.1,11.6-2
			c4.3,1.6,8.5,6.1,7.9,11.4c-0.5,3.8-3.3,6.7-6.4,8c-4.6,1.9-8.8-0.2-9.4-0.5"/>
	</g>
	<g id="Layer_1_13_">
		<path id="_x2F_primitives_x2F_elegant_x5F_scroll.svg_8_" class="st0" d="M405.3,43.2c-3.3-3.6-8.5-4.5-12.5-2.5
			c-5.2,2.6-6.9,9.5-4.5,14c2.7,5.1,9.7,5.4,13.5,4.5c8.5-2,12.6-12.1,13.5-18.5c0.2-1.3,1.9-14.3-8-22.5
			c-11.1-9.2-25.6-2.9-26.5-2.5c-7.6,3.5-15.7,11.4-15.5,20.5c0,2,0.5,6.2,9.5,16.5c10.6,12.2,16.6,13.8,29,26
			c9.1,8.9,13.6,13.5,15,21c0.3,1.6,2.3,13.5-6,22c-6.9,7.1-16.2,7-19,7c-3.2,0-11.4-0.6-18.5-7c-1.3-1.2-10.1-9.1-9-20
			c1.4-12.8,15.9-23.5,26-20.5c4.9,1.5,9.9,6.6,10,12.5c0.1,4.2-2.4,9.5-6.5,10.5c-5.2,1.2-10-5.1-11-6.5c-1.3-1.7-2.1-3.3-2.5-4.5"
			/>
	</g>
</g>
<g id="Layer_1">
	<g>
		<path class="st1" d="M208.2,68.5c4.6,0,8.3,2.7,8.3,6.1s-3.7,6.1-8.3,6.1s-8.3-2.7-8.3-6.1S203.6,68.5,208.2,68.5 M208.2,67.5
			c-5.1,0-9.3,3.2-9.3,7.1s4.2,7.1,9.3,7.1s9.3-3.2,9.3-7.1S213.3,67.5,208.2,67.5L208.2,67.5z"/>
	</g>
	<g>
		<path class="st1" d="M237.7,15.9c11.5,0,20.9,8.8,20.9,19.7s-9.4,19.7-20.9,19.7s-20.9-8.8-20.9-19.7S226.1,15.9,237.7,15.9
			 M237.7,14.9c-12.1,0-21.9,9.3-21.9,20.7c0,11.4,9.8,20.7,21.9,20.7s21.9-9.3,21.9-20.7C259.6,24.1,249.8,14.9,237.7,14.9
			L237.7,14.9z"/>
	</g>
	<g>
		<path class="st1" d="M236,85.2L236,85.2c2.7,0,5.5,2.1,7.1,5.2c2.1,4.1,1.3,8.6-1.7,10.2c-0.6,0.3-1.3,0.5-2.1,0.5
			c-2.7,0-5.5-2.1-7.1-5.2c-1-2-1.4-4.2-1-6.2c0.4-1.9,1.3-3.3,2.7-4C234.6,85.4,235.3,85.2,236,85.2 M236,84.2
			c-0.9,0-1.7,0.2-2.5,0.6c-3.5,1.8-4.5,6.9-2.2,11.5c1.8,3.5,5,5.7,8,5.7c0.9,0,1.7-0.2,2.5-0.6c3.5-1.8,4.5-6.9,2.2-11.5
			C242.2,86.4,239,84.2,236,84.2L236,84.2z"/>
	</g>
	<g>
		<path class="st1" d="M245,43.2c4,0,7.3,2.2,7.7,5.2c0.4,3.3-3,6.5-7.6,7c-0.4,0-0.8,0.1-1.3,0.1c-4,0-7.3-2.2-7.7-5.2
			c-0.4-3.3,3-6.5,7.6-7C244.1,43.2,244.6,43.2,245,43.2 M245,42.2c-0.5,0-0.9,0-1.4,0.1c-5.1,0.6-8.9,4.2-8.4,8.1
			c0.4,3.5,4.2,6.1,8.7,6.1c0.5,0,0.9,0,1.4-0.1c5.1-0.6,8.9-4.2,8.4-8.1C253.2,44.7,249.5,42.2,245,42.2L245,42.2z"/>
	</g>
	<g>
		<path class="st1" d="M254.7-12.2c3.7,0,6.8,3.4,6.8,7.6S258.4,3,254.7,3c-3.7,0-6.8-3.4-6.8-7.6S250.9-12.2,254.7-12.2
			 M254.7-13.2c-4.3,0-7.8,3.9-7.8,8.6s3.5,8.6,7.8,8.6s7.8-3.9,7.8-8.6S259-13.2,254.7-13.2L254.7-13.2z"/>
	</g>
	<g>
		<path class="st1" d="M199.5,51.4c0,0,0.1,0,0.1,0c3.4,0.3,6.7,1.5,9.6,3.7c3.9,2.8,8,8.4,8.3,14.3v0.9v0.1c0,0.6-0.1,1.3-0.2,1.9
			l0,0.2c-0.3,1.6-0.9,4.8-3.8,7.1l0,0l0,0l0,0c-0.4,0.3-2.6,1.7-5.4,1.7c-0.8,0-1.6-0.1-2.4-0.4c-2.5-0.9-17.5-10.9-19.1-17.5
			c-0.3-1.2-0.1-2.1,0.6-2.9C192.8,54.3,197.5,51.4,199.5,51.4 M199.5,50.4c-2.3,0-7.2,2.9-13.2,9.6c-5.8,6.3,15.5,20.8,18.9,22
			c0.9,0.3,1.9,0.5,2.7,0.5c3.4,0,6.1-2,6.1-2l0.1-0.1c3.3-2.6,3.9-6.4,4.2-7.9c0.1-0.7,0.2-1.4,0.2-2.1v-0.1c0-0.3,0-0.6,0-0.9
			c-0.3-6.2-4.4-12-8.7-15.1c-3.1-2.3-6.5-3.6-10.1-3.9C199.6,50.4,199.6,50.4,199.5,50.4L199.5,50.4z"/>
	</g>
	<line class="st2" x1="215.8" y1="35.6" x2="259.6" y2="35.6"/>
	<line class="st2" x1="247" y1="-4.6" x2="262.4" y2="-4.6"/>
	<line class="st2" x1="187.1" y1="66.3" x2="216.7" y2="64.9"/>
	<line class="st2" x1="198.9" y1="74.6" x2="217.5" y2="74.6"/>
	<line class="st2" x1="230.1" y1="93.1" x2="244" y2="93.1"/>
	<line class="st2" x1="235.5" y1="48.7" x2="252.6" y2="49.2"/>
	<text transform="matrix(1 0 0 1 270 -4.5544)" class="st3 st4">5.5 mm</text>
	<text transform="matrix(1 0 0 1 264.6254 35.5782)" class="st3 st4">15.5 mm</text>
	<text transform="matrix(1 0 0 1 169.6253 82.5042)" class="st3 st4">6.5 mm</text>
	<text transform="matrix(1 0 0 1 167.1253 49.2885)" class="st3 st4">10.4 mm</text>
	<text transform="matrix(1 0 0 1 250.1254 97.0704)" class="st3 st4">5.0 mm</text>
</g>
<g id="Layer_3">
	<path id="_x2F_primitives_x2F_elegant_x5F_scroll.svg_7_" class="st5" d="M419.5,100c0.3,1.6,2.3,13.5-6,22c-6.9,7.1-16.2,7-19,7
		c-3.2,0-11.4-0.6-18.5-7c-1.3-1.2-10.1-9.1-9-20c1.4-12.8,15.9-23.5,26-20.5c4.9,1.5,9.9,6.6,10,12.5c0.1,4.2-2.4,9.5-6.5,10.5
		c-5.2,1.2-10-5.1-11-6.5c-1.3-1.7-2.1-3.3-2.5-4.5"/>
	<path id="_x2F_primitives_x2F_elegant_x5F_scroll.svg_6_" class="st5" d="M405.6,43.4c-3.3-3.6-8.5-4.5-12.5-2.5
		c-5.2,2.6-6.9,9.5-4.5,14c2.7,5.1,9.7,5.4,13.5,4.5c8.5-2,12.6-12.1,13.5-18.5c0.2-1.3,1.9-14.3-8-22.5
		c-11.1-9.2-25.6-2.9-26.5-2.5c-7.6,3.5-15.7,11.4-15.5,20.5"/>
	<g id="Layer_1_12_">
		<path id="_x2F_primitives_x2F_open_x5F_scroll.svg_9_" class="st5" d="M453,44.4c5.5,6.9,7.2,12.2,5.2,21.7
			c-1.6,7.4-18,27.5-26.4,26.9c-6-0.5-10.2-3.4-11.5-4.5c-5.9-4.4-11-12.6-9.6-20.9c0.3-1.7,1.1-6.4,5.2-9.7c0.4-0.4,5.7-4.1,11.6-2
			c4.3,1.6,8.6,6.2,7.8,11.4c-0.5,3.7-3.3,6.7-6.4,8c-4.6,1.9-8.8-0.2-9.4-0.5"/>
	</g>
	<g id="Layer_1_11_">
		<path id="_x2F_primitives_x2F_open_x5F_scroll.svg_8_" class="st5" d="M370,136.1c-0.4,0.4-4.8,5-3.5,11.2c0.1,0.4,1.6,7.6,8,9.1
			c3.7,0.9,7.7-0.4,10.1-3c4.6-5.3,0.7-14.1,0.3-15.2"/>
	</g>
</g>
</svg>
