<?xml version="1.0" encoding="utf-8"?>
<!-- Generator: Adobe Illustrator 19.1.0, SVG Export Plug-In . SVG Version: 6.00 Build 0)  -->
<svg version="1.1" id="Layer_1" xmlns="http://www.w3.org/2000/svg" xmlns:xlink="http://www.w3.org/1999/xlink" x="0px" y="0px"
	 viewBox="770.3 144.1 208.7 158.7" style="enable-background:new 770.3 144.1 208.7 158.7;" xml:space="preserve">
<style type="text/css">
	.st0{fill:none;stroke:#ADB2BD;stroke-width:4.614;stroke-miterlimit:10;}
	.st1{fill:none;stroke:#00AEEF;stroke-width:4.6148;stroke-miterlimit:10;}
	.st2{fill:none;stroke:#050404;stroke-width:1.4173;stroke-miterlimit:10;}
	.st3{fill:#FFFFFF;}
	.st4{enable-background:new    ;}
	.st5{fill:none;stroke:#ADB2BD;stroke-width:4.6148;stroke-miterlimit:10;}
	.st6{fill:none;stroke:#000000;stroke-width:0.4337;stroke-miterlimit:10;}
</style>
<g id="Layer_1_3_">
	<path id="_x2F_primitives_x2F_large_x5F_heart.svg_5_" class="st5" d="M863.3,248.1c0,0,23.2-30.9,18.2-41.8
		c-2.8-6.1-8.7-6.6-9.5-6.5c-7.4,1-12.6,11.4-5.5,16.8c9.7,7.4,18.8-5,13.6-14.1c-10.3-18.1-37.9-16.6-48.5-0.2
		c-11.8,18.1-0.6,41.8,10.9,57.2c7.2,9.7,14.5,19.1,23,27.7c1.9,2,4.2,4.7,6.6,7.2"/>
</g>
<g id="Layer_1_6_">
	<path id="_x2F_primitives_x2F_large_x5F_heart.svg_6_" class="st5" d="M808,264.4c0,0,15.9-21.2,12.5-28.7c-1.9-4.2-6-4.5-6.5-4.5
		c-5.1,0.7-8.6,7.8-3.8,11.5c6.7,5.1,12.9-3.4,9.3-9.7c-7.1-12.4-26-11.4-33.3-0.1c-8.1,12.4-0.4,28.7,7.5,39.3
		c4.9,6.7,10,13.1,15.8,19c1.3,1.4,2.9,3.3,4.6,4.9"/>
</g>
<g id="Layer_1_5_">
	<path id="_x2F_primitives_x2F_large_x5F_heart.svg_4_" class="st5" d="M940.8,228.9c0,0,30.7-40.9,24.1-55.3
		c-3.7-8.1-11.5-8.7-12.6-8.6c-9.8,1.3-16.7,15.1-7.3,22.2c12.8,9.8,24.9-6.6,18-18.7c-13.6-23.9-50.1-22-64.2-0.3
		c-15.6,23.9-0.8,55.3,14.4,75.7c9.5,12.8,19.2,25.3,30.4,36.6c2.6,2.6,5.5,6.3,8.8,9.5"/>
</g>
</svg>
