<?xml version="1.0" encoding="utf-8"?>
<!-- Generator: Adobe Illustrator 19.1.0, SVG Export Plug-In . SVG Version: 6.00 Build 0)  -->
<svg version="1.1" id="Layer_1" xmlns="http://www.w3.org/2000/svg" xmlns:xlink="http://www.w3.org/1999/xlink" x="0px" y="0px"
	 viewBox="595 -26.5 119.4 114.9" style="enable-background:new 595 -26.5 119.4 114.9;" xml:space="preserve">
<style type="text/css">
	.st0{fill:none;stroke:#ADB2BD;stroke-width:4.614;stroke-miterlimit:10;}
	.st1{fill:none;stroke:#00AEEF;stroke-width:4.6148;stroke-miterlimit:10;}
	.st2{fill:none;stroke:#050404;stroke-width:1.4173;stroke-miterlimit:10;}
	.st3{fill:#FFFFFF;}
	.st4{enable-background:new    ;}
	.st5{fill:none;stroke:#ADB2BD;stroke-width:4.6148;stroke-miterlimit:10;}
	.st6{fill:none;stroke:#000000;stroke-width:0.4337;stroke-miterlimit:10;}
</style>
<rect x="579.4" y="191.5" width="161.7" height="118.3"/>
<g id="Layer_1_4_">
	<path id="_x2F_primitives_x2F_large_x5F_heart.svg_3_" class="st0" d="M476.3-16.4c-9.4-3.6-18.2,9.9-9.8,16.3
		c9.7,7.4,18.8-5,13.6-14.1c-10.3-18.1-37.9-16.6-48.5-0.2c-11.8,18.1-0.6,41.8,10.9,57.2c7.2,9.7,14.5,19.1,23,27.7
		c5.2,5.3,12.5,16.2,20.3,11.4c7.6-4.7,14.3-12.8,20.6-19c6.1-6,11.6-12.4,16.8-19.2c11.3-14.9,24.4-33.7,14.9-52.9
		c-8.3-16.9-32.7-23.4-46.2-8.7c-3.7,4-6.2,8.8-3.8,14.3c2.3,5.2,7.9,8.2,13.3,5.7c11.7-5.5,2.5-23.3-8.9-17.4"/>
</g>
<path class="st1" d="M470.5,75.5c-8.5-8.6-20.8-23.1-28-32.8C431,27.3,419.8,3.6,431.6-14.5c10.6-16.4,38.2-17.9,48.5,0.2
	c5.2,9.1-3.9,21.5-13.6,14.1c-8.4-6.4,0.4-19.9,9.8-16.3c-9.4-3.6-18.2,9.9-9.8,16.3c9.7,7.4,18.8-5,13.6-14.1
	c-10.3-18.1-37.9-16.6-48.5-0.2c-11.8,18.1-0.6,41.8,10.9,57.2c7.2,9.7,14.5,19.1,23,27.7"/>
<circle class="st2" cx="455.9" cy="2.2" r="26.9"/>
<circle class="st3" cx="622.8" cy="270.6" r="26.9"/>
<circle class="st2" cx="472.2" cy="-8" r="7.4"/>
<text transform="matrix(1 0 0 1 441.0754 12.1849)" style="font-family:'MyriadPro-Regular'; font-size:12px;">19mm</text>
<text transform="matrix(1 0 0 1 471.0754 -29.3151)" style="font-family:'MyriadPro-Regular'; font-size:12px;">5mm</text>
<text transform="matrix(1 0 0 1 488.9754 59.4749)" style="font-family:'MyriadPro-Regular'; font-size:12px;">5mm</text>
<text transform="matrix(1 0 0 1 428.9754 104.6849)" style="font-family:'MyriadPro-Regular'; font-size:12px;">length = 161mm (6.3in)</text>
<g id="Layer_1_1_">
	<path id="_x2F_primitives_x2F_large_x5F_heart.svg_1_" class="st5" d="M647-13.4c-9.4-3.6-18.2,9.9-9.8,16.3
		c9.7,7.4,18.8-5,13.6-14.1c-10.3-18.1-37.9-16.6-48.5-0.2c-11.8,18.1-0.6,41.8,10.9,57.2c7.2,9.7,14.5,19.1,23,27.7
		c5.2,5.3,12.5,16.2,20.3,11.4c7.6-4.7,14.3-12.8,20.6-19c6.1-6,11.6-12.4,16.8-19.2c11.3-14.9,24.4-33.7,14.9-52.9
		c-8.3-16.9-32.7-23.4-46.2-8.7c-3.7,4-6.2,8.8-3.8,14.3c2.3,5.2,7.9,8.2,13.3,5.7c11.7-5.5,2.5-23.3-8.9-17.4"/>
</g>
<circle class="st2" cx="481.6" cy="73.1" r="7.4"/>
<line class="st6" x1="429" y1="2.2" x2="482.8" y2="2.2"/>
<line class="st6" x1="468.9" y1="-1.3" x2="476.3" y2="-16.4"/>
<line class="st6" x1="487.3" y1="67.5" x2="477.3" y2="78.3"/>
<g id="Layer_1_2_">
	<path id="_x2F_primitives_x2F_large_x5F_heart.svg_2_" class="st5" d="M783.7,34.4c0,0,23.2-30.9,18.2-41.8
		c-2.8-6.1-8.7-6.6-9.5-6.5c-7.4,1-12.6,11.4-5.5,16.8c9.7,7.4,18.8-5,13.6-14.1c-10.3-18.1-37.9-16.6-48.5-0.2
		c-11.8,18.1-0.6,41.8,10.9,57.2c7.2,9.7,14.5,19.1,23,27.7c5.2,5.3,12.5,16.2,20.3,11.4c7.6-4.7,14.3-12.8,20.6-19
		c6.1-6,11.6-12.4,16.8-19.2C854.9,31.8,868,13,858.5-6.2c-8.3-16.9-32.7-23.4-46.2-8.7c-3.7,4-6.2,8.8-3.8,14.3
		c2.3,5.2,7.9,8.2,13.3,5.7c10.2-4.8,4.5-19-4.8-18.6c-0.7,0-8.1,0.8-9.4,7.2c-2.3,11.7,8.7,40.7,8.7,40.7"/>
</g>
<circle class="st3" cx="679.1" cy="254.3" r="7.4"/>
<circle class="st3" cx="679.1" cy="290.1" r="7.4"/>
<circle class="st3" cx="714.1" cy="270.6" r="7.4"/>
<g id="Layer_1_3_">
	<path id="_x2F_primitives_x2F_large_x5F_heart.svg_5_" class="st5" d="M835.5,248.4c0,0,23.2-30.9,18.2-41.8
		c-2.8-6.1-8.7-6.6-9.5-6.5c-7.4,1-12.6,11.4-5.5,16.8c9.7,7.4,18.8-5,13.6-14.1c-10.3-18.1-37.9-16.6-48.5-0.2
		c-11.8,18.1-0.6,41.8,10.9,57.2c7.2,9.7,14.5,19.1,23,27.7c1.9,2,4.2,4.7,6.6,7.2"/>
</g>
</svg>
