<?xml version="1.0" encoding="utf-8"?>
<!-- Generator: Adobe Illustrator 19.1.0, SVG Export Plug-In . SVG Version: 6.00 Build 0)  -->
<svg version="1.1" id="BeeDesign" xmlns="http://www.w3.org/2000/svg" xmlns:xlink="http://www.w3.org/1999/xlink" x="0px" y="0px"
	 viewBox="1257 -134.5 153 150" style="enable-background:new 1257 -134.5 153 150;" xml:space="preserve">
<style type="text/css">
	.st0{fill:none;stroke:#ED1164;stroke-width:3.6595;stroke-miterlimit:10;}
</style>
<path id="Body" class="st0" d="M1363.2-53.1c1.8,4,4.1,10.7,3.8,19c-0.3,9.6-4,16-10.7,27.3c-7.8,13.5-13.6,17.1-17.5,18.8
	c-4.1,1.8-6.5,1.7-7.7,1.5c-2.9-0.4-6.2-2.1-13-12c-1.7-2.5-6.8-10.1-12.7-24c-3.9-9.1-4.3-12.2-4.3-15c0-2.4,0-9.5,4.7-14.5
	c2.2-2.4,5.5-4.4,16.5-5.7c0,0,13.7-2.6,28,0.3c0.5,0.1,1.5,0.3,2.5,1c2.8,1.8,3.5,5.4,3.8,8.5c1.2,9.7,1.8,14.6-0.7,20.3
	c-0.7,1.6-7.2,16.1-20.8,16.2c-9.5,0-17-6.9-20-14.2c-2.6-6.3-3.3-16.1,2.3-21.2c2.7-2.5,5.9-2.9,10-3.5c5.8-0.8,13.5-2.1,18.5,3.5
	c5.2,5.7,4,18.1-2.6,22.8c-5.3,3.7-14.2,1-15.9-4.3c-1.5-4.9,1.2-10.3,5.3-10"/>
<path id="HeadWings_4_" class="st0" d="M1378.9-75.4c-0.9,0-4,0.1-6.2-2.2c-3-3.1-2.1-8.6,0.7-11.8c3-3.5,8.2-4.1,11.8-2.5
	c5.7,2.5,7.1,10.2,5.7,15.5c-1.9,6.8-8.8,9.4-12,10.7c-0.8,0.3-12.2,4.5-19.2-1.5c-0.3-0.2-1.1-1-2.5-3c-2.7-3.9-8.4-12.2-6.3-20.5
	c2.3-9.3,13.1-13.3,17.8-15c3.8-1.4,10.3-3.7,18-1.5c11.8,3.4,16.4,14.6,16.7,15.3c4.1,10.7,0.3,22.7-7.2,29c-5.5,4.7-12.1,5.4-18,6
	c-1.9,0.2-8.8,0.8-17.3-1.5c-1.9-0.5-4.1-1.2-6.7-2.3c-7.9-3.4-28.5-18.5-34-30.3c-0.9-1.9,1.1-6.2-1.2-10.1
	c-0.9-1.5-1.1-1.6-3.2-3.7c-0.7-0.7-5.8-6-6.2-12.7c-0.1-1.6-0.3-5.2,2-6.7c1.8-1.2,4.5-0.7,6.3,0.5c4,2.6,1.7,7.3,5.5,11.7
	c0.3,0.4,0.7,0.7,1,1c2.4,2.2,5.5,3.7,7.1,3.8c0.8,0,7.8,0.4,11.8-4.3c3.8-4.4,1.5-9.1,5.5-11.7c1.8-1.2,4.6-1.7,6.3-0.5
	c2.3,1.5,2.1,5.1,2,6.7c-0.4,8.7-7.3,14-8.1,15.7c-1.1,2.2,0.1,5.6-1.2,10.3c0,0-20.1,24.3-34,30.3c-3.2,1.4-6.3,2.2-6.7,2.3
	c-8.5,2.3-15.4,1.7-17.3,1.5c-5.7-0.6-12.4-1.3-18-6c-7.4-6.3-11.3-18.3-7.2-29c0.3-0.6,4.8-11.9,16.7-15.3c0.6-0.2,9.6-2.6,18,1.5
	c8.6,4.2,28.3,12.2,11.5,35.5c-1.1,1.5-1.6,2.3-2.5,3c-6.9,6-18.4,1.8-19.2,1.5c-3.2-1.2-10.1-3.8-12-10.7c-1.5-5.3,0-13,5.7-15.5
	c3.6-1.6,8.8-1,11.8,2.5c2.8,3.2,3.6,8.7,0.7,11.8c-2.1,2.2-5.3,2.2-6.2,2.2"/>
</svg>
