<?xml version="1.0" encoding="utf-8"?>
<!-- Generator: Adobe Illustrator 19.1.0, SVG Export Plug-In . SVG Version: 6.00 Build 0)  -->
<svg version="1.1" id="Layer_1" xmlns="http://www.w3.org/2000/svg" xmlns:xlink="http://www.w3.org/1999/xlink" x="0px" y="0px"
	 viewBox="0 0 150.7 186.7" style="enable-background:new 628 -22.5 150.7 186.7;" xml:space="preserve">
<style type="text/css">
	.st0{fill:none;stroke:#C0C0C0;stroke-width:5.6693;stroke-miterlimit:10;}
	.st1{fill:#508694;}
</style>
<g id="Layer_1_1_">
	<path id="_x2F_primitives_x2F_elegant_x5F_scroll.svg" class="st0" d="M718.1,43.1c-3.3-3.6-8.5-4.5-12.5-2.5
		c-5.2,2.6-6.9,9.5-4.5,14c2.7,5.1,9.7,5.4,13.5,4.5c8.5-2,12.6-12.1,13.5-18.5c0.2-1.3,1.9-14.3-8-22.5
		c-11.1-9.2-25.6-2.9-26.5-2.5c-7.6,3.5-15.7,11.4-15.5,20.5c0,2,0.5,6.2,9.5,16.5c10.6,12.2,16.6,13.8,29,26
		c9.1,8.9,13.6,13.5,15,21c0.3,1.6,2.3,13.5-6,22c-6.9,7.1-16.2,7-19,7c-3.2,0-11.4-0.6-18.5-7c-1.3-1.2-10.1-9.1-9-20
		c1.4-12.8,15.9-23.5,26-20.5c4.9,1.5,9.9,6.6,10,12.5c0.1,4.2-2.4,9.5-6.5,10.5c-5.2,1.2-10-5.1-11-6.5c-1.3-1.7-2.1-3.3-2.5-4.5"
		/>
</g>
<g id="Layer_1_2_">
	<path id="_x2F_primitives_x2F_open_x5F_scroll.svg" class="st0" d="M683.5,136c-0.4,0.4-4.8,5-3.5,11.2c0.1,0.4,1.6,7.6,8,9.1
		c3.7,0.9,7.7-0.4,10.1-3c4.6-5.3,0.7-14.1,0.3-15.2c-3.3-7.5-41.6-28.5-52.2-41.9c-5.5-6.9-7.2-12.1-5.2-21.7
		c1.5-7.3,18-27.5,26.4-26.9c6,0.5,10.1,3.4,11.5,4.5c5.9,4.4,11,12.6,9.6,20.9c-0.3,1.7-1,6.5-5.2,9.7c-0.5,0.4-5.7,4.1-11.6,2
		c-4.3-1.6-8.5-6.1-7.9-11.4c0.5-3.8,3.3-6.7,6.4-8c4.6-1.9,8.8,0.2,9.4,0.5"/>
</g>
<g id="Layer_1_3_">
	<path id="_x2F_primitives_x2F_open_x5F_scroll.svg_1_" class="st0" d="M729,4.6c0.4-0.4,4.8-5,3.5-11.2c-0.1-0.4-1.6-7.6-8-9.1
		c-3.7-0.9-7.7,0.4-10.1,3c-4.6,5.3-0.7,14.1-0.3,15.2c3.3,7.5,41.6,28.5,52.2,41.9c5.5,6.9,7.2,12.1,5.2,21.7
		c-1.5,7.3-18,27.5-26.4,26.9c-6-0.5-10.1-3.4-11.5-4.5c-5.9-4.4-11-12.6-9.6-20.9c0.3-1.7,1-6.5,5.2-9.7c0.5-0.4,5.7-4.1,11.6-2
		c4.3,1.6,8.5,6.1,7.9,11.4c-0.5,3.8-3.3,6.7-6.4,8c-4.6,1.9-8.8-0.2-9.4-0.5"/>
</g>
</svg>
