<?xml version="1.0" encoding="utf-8"?>
<!-- Generator: Adobe Illustrator 19.1.0, SVG Export Plug-In . SVG Version: 6.00 Build 0)  -->
<svg version="1.1" id="Layer_1" xmlns="http://www.w3.org/2000/svg" xmlns:xlink="http://www.w3.org/1999/xlink" x="0px" y="0px"
	 viewBox="-14 -57.6 111.3 255.3" style="enable-background:new -14 -57.6 111.3 255.3;" xml:space="preserve">
<style type="text/css">
	.st0{fill:#FFFFFF;}
	.st1{fill:none;stroke:#0C0C0C;stroke-width:2.8346;stroke-miterlimit:10;}
</style>
<rect x="-14" y="-57.6" width="111.3" height="255.3"/>
<ellipse class="st0" cx="71.6" cy="1.2" rx="9.3" ry="7.1"/>
<ellipse class="st0" cx="71.6" cy="-32" rx="9.3" ry="7.1"/>
<ellipse class="st0" cx="23.5" cy="52.8" rx="23.6" ry="21.3"/>
<ellipse class="st0" cx="23.7" cy="-24.9" rx="21.9" ry="20.7"/>
<ellipse transform="matrix(0.894 -0.4481 0.4481 0.894 -9.6074 34.9387)" class="st0" cx="69" cy="37.8" rx="7.1" ry="9.3"/>
<ellipse transform="matrix(0.894 -0.4481 0.4481 0.894 -23.7242 39.8833)" class="st0" cx="72.4" cy="70.1" rx="7.1" ry="9.3"/>
<ellipse class="st0" cx="41" cy="110.1" rx="7.8" ry="8.6"/>
<ellipse class="st0" cx="7.9" cy="131.1" rx="7.8" ry="8.6"/>
<ellipse class="st0" cx="72.4" cy="131.1" rx="7.8" ry="8.6"/>
<ellipse class="st0" cx="68.5" cy="172.6" rx="9.1" ry="8"/>
<path class="st0" d="M12.4,154.1c-4.6-1.6-8.8,1.5-8.8,1.5l-0.1,0.1c-3.3,2.6-3.9,6.4-4.2,7.9c-0.1,0.7-0.2,1.4-0.2,2.1v0.1
	c0,0.3,0,0.6,0,0.9c0.3,6.2,4.4,12,8.7,15.1c3.1,2.3,6.5,3.6,10.1,3.9c2.2,0.2,7.2-2.7,13.4-9.6C37.1,169.8,15.8,155.3,12.4,154.1z"
	/>
<line class="st1" x1="2" y1="144.2" x2="81.1" y2="144.2"/>
<line class="st1" x1="0.3" y1="90.7" x2="82.8" y2="90.7"/>
<line class="st1" x1="0.3" y1="17.7" x2="82.8" y2="17.7"/>
</svg>
