<?xml version="1.0" encoding="utf-8"?>
<!-- Generator: Adobe Illustrator 19.1.0, SVG Export Plug-In . SVG Version: 6.00 Build 0)  -->
<svg version="1.1" id="Layer_1" xmlns="http://www.w3.org/2000/svg" xmlns:xlink="http://www.w3.org/1999/xlink" x="0px" y="0px"
	 viewBox="787 -22.5 219.3 292.7" style="enable-background:new 787 -22.5 219.3 292.7;" xml:space="preserve">
<style type="text/css">
	.st0{fill:none;stroke:#C0C0C0;stroke-width:5.6693;stroke-miterlimit:10;}
	.st1{fill:#508694;}
</style>
<path id="_x2F_primitives_x2F_elegant_x5F_scroll.svg_5_" class="st0" d="M864.5,91.7c-0.3-1.6-2.3-13.5,6-22c6.9-7.1,16.2-7,19-7
	c3.2,0,11.4,0.6,18.5,7c1.3,1.2,10.1,9.1,9,20c-1.4,12.8-15.9,23.5-26,20.5c-4.9-1.5-9.9-6.6-10-12.5c-0.1-4.2,2.4-9.5,6.5-10.5
	c5.2-1.2,10,5.1,11,6.5c1.3,1.7,2.1,3.3,2.5,4.5"/>
<path id="_x2F_primitives_x2F_elegant_x5F_scroll.svg_3_" class="st0" d="M908.6,19.4c-3.3-3.6-8.5-4.5-12.5-2.5
	c-5.2,2.6-6.9,9.5-4.5,14c2.7,5.1,9.7,5.4,13.5,4.5c8.5-2,12.6-12.1,13.5-18.5c0.2-1.3,1.9-14.3-8-22.5c-11.1-9.2-25.6-2.9-26.5-2.5
	c-7.6,3.5-15.7,11.4-15.5,20.5"/>
<g id="Layer_1_4_">
	<path id="_x2F_primitives_x2F_open_x5F_scroll.svg_5_" class="st0" d="M854.2,224.3c1-8.8,3.5-13.7,11.7-19
		c6.3-4.1,32.2-6.7,37.7-0.4c3.9,4.6,4.8,9.6,5,11.3c1.1,7.3-1.1,16.7-8,21.6c-1.4,1-5.3,3.8-10.5,3.2c-0.6,0-6.9-1.1-9.6-6.8
		c-1.9-4.2-1.7-10.4,2.5-13.6c3-2.3,7.1-2.4,10.2-1.1c4.6,1.9,6.1,6.4,6.3,7"/>
</g>
<g id="Layer_1_5_">
	<path id="_x2F_primitives_x2F_open_x5F_scroll.svg_4_" class="st0" d="M893.1,168c0.4-0.4,4.8-5,3.5-11.2c-0.1-0.4-1.6-7.6-8-9.1
		c-3.7-0.9-7.7,0.4-10.1,3c-4.6,5.3-0.7,14.1-0.3,15.2"/>
</g>
<path id="_x2F_primitives_x2F_elegant_x5F_scroll.svg_7_" class="st0" d="M801.6,91.1c-0.3-1.4-2-11.6,5.2-19c6-6.1,14-6,16.4-6
	c2.8,0,9.8,0.5,16,6c1.1,1,8.7,7.9,7.8,17.3c-1.2,11-13.7,20.3-22.4,17.7c-4.2-1.3-8.5-5.7-8.6-10.8c-0.1-3.6,2.1-8.2,5.6-9.1
	c4.5-1,8.6,4.4,9.5,5.6c1.1,1.5,1.8,2.8,2.2,3.9"/>
<path id="_x2F_primitives_x2F_elegant_x5F_scroll.svg_6_" class="st0" d="M839.3,18.5c-2.8-3.1-7.3-3.9-10.8-2.2
	c-4.5,2.2-6,8.2-3.9,12.1c2.3,4.4,8.4,4.7,11.6,3.9c7.3-1.7,10.9-10.4,11.6-16c0.2-1.1,1.6-12.3-6.9-19.4
	c-9.6-7.9-22.1-2.5-22.9-2.2c-6.6,3-13.5,9.8-13.4,17.7"/>
<g id="Layer_1_9_">
	<path id="_x2F_primitives_x2F_open_x5F_scroll.svg_7_" class="st0" d="M793.8,223.7c0.9-7.6,3-11.8,10.1-16.4
		c5.4-3.5,27.8-5.8,32.5-0.3c3.4,4,4.1,8.3,4.3,9.8c0.9,6.3-1,14.4-6.9,18.6c-1.2,0.9-4.6,3.3-9.1,2.7c-0.5,0-6-0.9-8.3-5.8
		c-1.7-3.6-1.5-9,2.1-11.7c2.6-2,6.1-2.1,8.8-1c4,1.7,5.3,5.5,5.4,6"/>
</g>
<g id="Layer_1_8_">
	<path id="_x2F_primitives_x2F_open_x5F_scroll.svg_6_" class="st0" d="M827,166.6c0.3-0.3,4.1-4.3,3.1-9.6
		c-0.1-0.4-1.4-6.5-6.9-7.9c-3.2-0.7-6.7,0.3-8.7,2.6c-4,4.6-0.6,12.2-0.2,13.1"/>
</g>
<path id="_x2F_primitives_x2F_elegant_x5F_scroll.svg_4_" class="st0" d="M930.7,92.8c-0.4-1.9-2.8-16.4,7.3-26.7
	c8.4-8.6,19.6-8.5,23-8.5c3.9,0,13.8,0.7,22.4,8.5c1.6,1.5,12.2,11,10.9,24.2c-1.7,15.5-19.3,28.5-31.5,24.8
	c-5.9-1.8-12-8-12.1-15.1c-0.1-5.1,2.9-11.5,7.9-12.7c6.3-1.5,12.1,6.2,13.3,7.9c1.6,2.1,2.5,4,3,5.5"/>
<path id="_x2F_primitives_x2F_elegant_x5F_scroll.svg_2_" class="st0" d="M984.7,20.8c-4-4.4-10.3-5.5-15.1-3
	c-6.3,3.2-8.4,11.5-5.5,17c3.3,6.2,11.8,6.5,16.4,5.5c10.3-2.4,15.3-14.7,16.4-22.4c0.2-1.6,2.3-17.3-9.7-27.3
	c-13.4-11.1-31-3.5-32.1-3c-9.2,4.2-19,13.8-18.8,24.8"/>
<g id="Layer_1_7_">
	<path id="_x2F_primitives_x2F_open_x5F_scroll.svg_3_" class="st0" d="M916.4,225.2c1.2-10.7,4.2-16.6,14.1-23
		c7.6-5,39-8.1,45.7-0.4c4.8,5.6,5.8,11.6,6.1,13.7c1.3,8.8-1.4,20.2-9.7,26.2c-1.7,1.3-6.4,4.7-12.8,3.8c-0.8-0.1-8.4-1.3-11.7-8.2
		c-2.3-5.1-2.1-12.6,3-16.5c3.7-2.8,8.6-3,12.4-1.4c5.6,2.3,7.4,7.7,7.6,8.5"/>
</g>
<g id="Layer_1_6_">
	<path id="_x2F_primitives_x2F_open_x5F_scroll.svg_2_" class="st0" d="M964.2,170.1c0.5-0.5,5.8-6,4.3-13.5
		c-0.1-0.5-1.9-9.2-9.8-11.1c-4.5-1-9.4,0.4-12.2,3.7c-5.6,6.5-0.9,17.1-0.3,18.5"/>
</g>
</svg>
